<svg version="1.1" xmlns="http://www.w3.org/2000/svg" xmlns:xlink="http://www.w3.org/1999/xlink" x="0px" y="0px" viewBox="0 0 400 112.3" xml:space="preserve">
<style>
	.hola--0 {fill:#B4ACC5;}
	.hola--1 {fill:#6A319C;}
	.hola--2 {fill:#393952;}
	@media (prefers-color-scheme: dark) {
		.hola--0 {fill:#393952;}
		.hola--2 {fill:#B4ACC5;}
	}
</style>
<path class="hola--0" d="M86.3,57.9c13.5-2.6,18.9-0.4,18.9-0.4s5.8,23.7,4.6,24c-0.2,0-0.4,0.2-0.6,0.3c-0.5,0.5-1.2,0.5-1.9,0.5
	c-0.2,0-0.6-0.1-0.8,0c-1.1,0.4-2.1,0.8-3.3,1.2c-1.1,0.3-2.3,0.7-3.4,1l-1.1-25.2h-9.6l-1.1,29c-1,0.4-2.1,0.8-3,1.2
	c-0.7,0.4-1.5,0.6-2.3,0.6c-0.7,0-1.3,0.2-1.8,0.9c-0.5,0.8-1.2,1.4-2.2,1.5c-0.3,0-0.6,0.2-0.8,0.4c-1,1-2.3,1.4-3.8,1.4
	c-0.9,0-1.7,0.3-2.4,0.8c-0.4,0.3-0.8,0.5-1.1,0.8c-1.2,1.1-2.6,1.7-4.4,1.6c-0.4,0-0.7,0-1,0.1c-0.9,0.3-1.8,0.2-2.7,0
	c-1.3-0.4-2.6-0.7-3.9-1.2c-0.6-0.2-1.2-0.7-1.6-1.1c-0.7-0.7-1.4-1.5-2.1-2.3c-0.2-0.3-0.6-0.4-0.9-0.6c-1-0.9-2.2-1.7-3.2-2.7
	c-1-1.1-1.7-2.4-2.5-3.8c-1.1-1.9-2.2-3.9-3.3-5.8c-0.2-0.3-0.2-0.8-0.3-1.2C44.3,78.1,64.1,62.1,86.3,57.9z M179.6,70.3
	c2.6,0,4.7-1,6.1-3.1c1.3-1.8,2-4.3,2.1-7.4c-1.7,0.5-3.3,1-4.9,1.5c-0.6,0.2-5.7,1.6-6.4,1.8c-1.4,0.4-2.9,0.8-4.3,1.2
	c0.3,1.1,0.8,2,1.4,2.8C174.9,69.2,177,70.3,179.6,70.3z M282.6,70.1l4.5,0.7c0.1-0.1,0.2-0.3,0.2-0.3c-0.2-0.6,0.5-1.3,0-1.9
	c-0.2-0.2-0.1-0.8,0-1c0.8-1.2,0.3-2.2-0.2-3.4c-0.1-0.2-0.1-0.5-0.1-0.7c-0.2-1.1-0.5-2.1-0.8-3.3c-0.1-0.5-0.4-0.9-0.5-1.3
	c-0.2-0.6-0.5-1.1-1.3-1c0.1-0.7,0-1.4-0.9-1.6c-0.1,0-0.2-0.2-0.3-0.4c-0.2-0.2-0.3-0.4-0.5-0.7V70.1z M241.8,74.4l0.1,0.9
	c0.1-0.2,0.2-0.5,0.4-0.9H241.8z M384,72.9c0.2-0.4-0.1-0.7-0.7-0.9c0,0,0,0,0,0C383.5,72.3,383.9,72.5,384,72.9z M270.8,66.7
	c0.7-1.3,1.1-2.6,1.2-4c-1.4-0.3-2.7-0.5-3.9-0.5c-1.4-0.1-2.8-0.1-4.3-0.1c-5.7,0-8.5,1.6-8.5,4.9c0,1.5,0.5,2.6,1.5,3.3
	s2.5,1.2,4.5,1.2c2.4,0,4.4-0.4,6-1.3S270,68.1,270.8,66.7z M320.7,91.9c0.1-0.1,0.1-0.2,0.1-0.4c-0.1-0.1-0.2-0.1-0.4-0.1
	c0,0,0,0.1,0,0.1C320.4,91.6,320.6,91.7,320.7,91.9z M225.2,80.8c-0.8,0.1-1.4,0.1-2.1,0.2c-1,0.2-1,0.3-0.7,1.3
	c-0.7,0.1-1.2,0.1-1.8-0.3c-0.1-0.1-0.6-0.2-0.7-0.1c-0.6,0.7-1.4,0.4-2.1,0.4c-0.2,0-0.3,0-0.4,0.2c-0.6,0.5-1.2,1-1.9,1.4
	c-0.2,0.1-0.5,0-0.7-0.1c-0.8-0.3-1.4-0.2-1.7,0.8c-0.6-0.2-1.2-0.1-1.7,0.4c-0.4,0.5-1.1,0.4-1.7,0.3c-0.8-0.2-1.6-0.3-2.5-0.4
	c-0.1,0.3-0.2,0.6-0.2,0.9c-0.6,0.2-1.3,0.5-1.9,0.7c0,0.1,0,0.1,0,0.2c-0.5-0.1-1-0.1-1.5-0.2c-0.8,1.5-2.2,1.1-3.6,1.1
	c-0.4,0-0.9-0.2-1.3-0.2c-0.5-0.1-1.1,0-1.4,0.7c0.2,0.1,0.4,0.2,0.6,0.3c-0.1,0.1-0.1,0.2-0.2,0.2c-1.1,0-2.1,0.7-3.3,0.5
	c-0.4-0.1-0.8,0.3-1.2,0.4c-0.8,0.2-1.6,0.4-2.5,0.6c-0.1,0.6-0.3,1.3-0.5,2c-0.8-0.1-1.8-0.3-2.7-0.4c-1.3-0.1-1.4,0.1-1.2,1.5
	c-0.3,0-0.7,0-1,0.1c-0.3,0-0.6,0-0.9,0.2c-0.4,0.3-0.7,0.6-1.2,0c-0.1-0.2-0.7-0.1-1,0c-1.1,0.3-2,1-2.3,2.3
	c-0.4,0-0.8-0.1-1.2-0.1c-0.9,0-1.8,0-2.6,0.8c-0.3,0.3-0.9,0.5-1.4,0.5c-1.7-0.1-2.3,1.2-3.1,2.4c-0.4,0-0.9-0.1-1.3-0.1
	c0,0,0-0.1,0-0.2c0.1-0.1,0.3-0.2,0.5-0.3c0.2-0.1,0.3-0.2,0.5-0.3c-0.9-0.6-2.4-0.1-2.9,1c0.6,0.1,1.2,0.2,1.8,0.3
	c-0.8,0.9-1.8,1.1-2.9,1.2c-0.8,0-1.6-0.2-2.4,0.4c-0.3,0.2-1,0-1.6,0c-0.5,0-1-0.1-1.3,0.6c-0.1,0.4-0.6,0.6-1,0.8
	c-0.4,0.2-1.2,0-0.8,0.9c-0.2,0.1-0.5,0.2-1,0.3c0.1-0.4,0.2-0.6,0.3-0.9c-0.8-1-1.8-1.6-3.3-1c-0.1,0.5-0.2,1-0.3,1.5
	c-0.4,0.1-0.7,0.1-1.1,0.2c0,0.4,0.1,0.7,0.1,1.1c-0.9,0.2-1.8,0.3-2.5,0.6c-0.9,0.4-1.7-0.1-2.5,0c-0.5,1.1,0.6,0.7,1.1,1.2
	c-0.6,0.2-1.1,0.3-1.6,0.4c-0.2-0.4-0.5-0.8-0.8-0.9s-0.8,0.1-1.2,0.3c-0.4,0.1-0.7,0.4-1,0.7c-0.9-0.3-1.8-0.6-2.6-1.1
	c-0.7-0.4-1.3-0.5-2,0.2c0-0.8-0.3-1.2-1-1.2c-0.9,0-1.7,0.1-2.9,0.1c0.2,0.2,0.3,0.4,0.5,0.5c0.4,0.1,0.8,0.1,1.1,0.2
	c0.4,0.1,0.8,0.1,0.9,0.8c-1.1,0-2.3,0.7-2.9-0.9c-0.6,0.3-0.7,0.8-1,1.3c-0.2,0.4-0.5,0.8-0.9,1.2c-0.1-0.9,0.5-1.6,0.8-2.4
	c-0.4-0.5-0.7-1-1.1-1.3c-0.5-0.3,0-1.1-1-1.2c-0.2,0.1-0.7,0.3-1.2,0.4c-0.5,0.2-0.7,0-0.7-0.5c-1.1-0.4-2.2-0.8-3-1.8
	c-0.3-0.5-0.6-1.1-1-1.4c-1.1-0.9-1.7-2.1-2.6-3.2c-2.5-2.5-3.6-5.8-4-9.4c-0.1-1-0.4-2.1-0.4-3.2c0-1,0.2-1.9,0.3-3
	c0.1-0.5,0.2-1,0.3-1.5c0-0.1,0-0.3,0-0.4h6.9V56h15.7c0.1,0.2,0.2,0.5,0.2,0.8c0.7,1.5,1.2,3.1,1.3,4.8v18.3h10.7V68.7
	c1.7-0.5,3.4-0.9,5.1-1.4c0.8,2.9,2.2,5.5,4,7.5c3.4,3.9,8.2,5.8,14.4,5.8c6.2,0,11-1.9,14.4-5.8s5.1-9.4,5.1-16.5
	c0-0.6,0-1.2-0.1-1.7c0.5-0.2,1-0.4,1.5-0.5c1-0.2,1.9-0.6,3-1c0.1,0,0.2-0.1,0.3-0.1c3.4-0.3,6.5-1.5,9.8-2.2V62
	c0,6.5,1.2,11.3,3.6,14.3c0.5,0.6,1.1,1.2,1.8,1.7c0.1,0.2,0.3,0.4,0.8,0.7c0-0.1,0.1-0.1,0.1-0.2c0.6,0.4,1.2,0.7,1.9,1
	c0.2,0.2,0.4,0.2,0.7,0.2c0.9,0.3,1.8,0.5,2.8,0.7C225.2,80.5,225.2,80.7,225.2,80.8z M132.2,103.4c-0.2-0.3-0.4-0.7-0.6-1
	c-0.6,0.6-0.6,0.6,0.1,1.3C131.8,103.6,132,103.5,132.2,103.4z M152.2,100.5c-0.6-0.3-0.9-0.1-1.2,0.3
	C151.5,101,151.8,101,152.2,100.5z M160.5,99.2c-0.1-0.1-0.2-0.2-0.3-0.2c-0.1,0-0.3,0.1-0.4,0.1c0,0.1,0,0.1,0,0.2
	c0.2,0.1,0.5,0.1,0.7,0.1C160.5,99.4,160.6,99.3,160.5,99.2z M165.7,97.9c-0.3-0.1-0.6-0.1-0.9-0.1c0,0.1,0,0.2,0,0.3h0.9
	C165.7,98,165.7,97.9,165.7,97.9z M178.3,93.7c-0.5-0.2-1-0.4-1.7-0.6c0.1,0.5,0.1,0.7,0.2,1c-0.3,0.1-0.6,0.1-1.2,0.2
	c0.5,0.4,0.7,0.8,1,0.8C177.4,95.2,177.9,94.7,178.3,93.7z M179.7,89.5h-1C179,90,179.3,90,179.7,89.5z M191.1,86.9h-0.6
	c0,0.1,0,0.1,0,0.2c0.2,0.1,0.4,0.1,0.6,0.1C191.1,87.1,191.1,87,191.1,86.9z M192.8,85.4c-0.8,0-1.4,0.2-1.9,0.8
	C191.9,86.5,192.4,86.3,192.8,85.4z M194.5,86.4c-0.2-0.4-0.6-0.3-0.9-0.2c-0.5,0.2-0.9,0.6-1.3,1.4c0.7-0.1,1.2-0.1,1.7-0.2
	C194.5,87.3,194.6,86.9,194.5,86.4z M195.6,86.9c-0.2,0-0.3-0.1-0.4-0.1c-0.2,0-0.3,0.1-0.4,0.2c0.1,0.1,0.1,0.1,0.1,0.2
	c0.2-0.1,0.4-0.1,0.6-0.1C195.5,87.1,195.5,87,195.6,86.9z M196.4,83.8c-0.1-0.2-0.4-0.4-0.6-0.5c-0.2-0.1-0.5,0-0.7,0.2
	c-0.2,0.3-0.3,0.6-0.6,1.1c0.6-0.1,1.1-0.1,1.6-0.2C196.2,84.3,196.4,83.9,196.4,83.8z M199.5,82.6c0.3,0.2,0.7,0.4,1.2-0.1
	c-0.5-0.1-0.9-0.2-1.2-0.2C199.5,82.4,199.5,82.5,199.5,82.6z M199.9,84.9c-1.3-1.4-1.3-1.4-2.2-0.3C198.5,84.8,199.1,85,199.9,84.9
	z M201,84.3c-0.3-0.7-0.6-1-1.1-0.3C200.2,84,200.4,84.1,201,84.3z M202.9,82.1c0.6,0.1,0.6,1.1,1.4,0.8c0-0.8,0-0.8,0.7-1.1
	c0.4-0.2,0.8-0.2,0.9-0.7C205.3,81,204,81.4,202.9,82.1z M207.4,82.1c-0.2,0.1-0.5,0.1-0.6,0.3c-0.4,1-1.6,0.7-2.1,1.6
	c-0.1,0.1-0.4,0.1-0.6,0.1c-0.8,0-1.6,0-2.4,0c0.2,0.8,0.5,1.1,1.3,1c0.8-0.1,1.6-0.4,2.4-0.7c0.4-0.2,0.7-0.4,1.2-0.4
	C207.7,84.1,208,83.2,207.4,82.1z M210.8,78.2c-0.9-0.5-1.5-0.1-2.1,0.4C209.4,79.4,209.7,79.3,210.8,78.2z M211.3,82.6
	c-0.8-0.4-1.4-0.3-2,0.2C209.9,82.9,210.6,83.2,211.3,82.6z M212.2,81.1c-0.4,0.2-0.6,0.4-1,0.6C211.9,82,212.1,81.9,212.2,81.1z
	M216.4,78.3c0.2,0.2,0.3,0.4,0.4,0.4c0.2,0,0.4-0.2,0.7-0.4c-0.2-0.2-0.4-0.4-0.5-0.4C216.8,78,216.6,78.2,216.4,78.3z M221.6,80
	c-1.3-0.9-1.6-0.9-2.9-0.2c-0.2,0.1-0.5,0.2-0.7,0.2c-0.9,0.1-1.7,0.1-2.5,0.2c-0.3,0-0.6,0.2-1.1,0.3c0.5,0.3,0.9,0.4,1.2,0.6
	c0.5,0.3,0.9,0.3,1.5,0c0.8-0.4,1.6-0.8,2.5-0.2C220.2,80.6,220.8,80.3,221.6,80z M395.9,66.8c-0.1,0.9-0.2,1.8-0.3,2.9
	c-1.5-0.3-2.9-0.7-4.5,0l1,0.6c-0.1,0.1-0.1,0.2-0.2,0.3c-0.4,0-0.9,0-1.3-0.1c-1.2-0.3-2.4-0.7-3.7-1c-0.6-0.2-0.6-0.1-1.1,0.5
	c0.3,0.5,1.4-0.2,1.3,0.9c-0.5,0.4-0.8-0.9-1.3-0.1c-0.2,0.2-0.1,0.6-0.1,1c-0.1,0-0.4,0-0.6-0.1c-0.9-0.4-1.8-0.5-2.9-0.2
	c-0.2,0-0.3,0.3-0.4,0.5c0.2,0.1,0.3,0.2,0.5,0.2c0.2-0.1,0.4-0.2,0.7-0.3c0.1,0.1,0.1,0.1,0.2,0.2c-0.2,0.4-0.5,0.7-0.7,1.1
	c0.5,0.4,1,0.4,1.3-0.1c0-0.1,0.1-0.1,0.1-0.2c0,0.1,0,0.2,0,0.3c0,0.1,0.4,0.4,0.7,0.6c-1,0.2-2,0.4-3.2,0.6c0.4-1-0.7-0.9-1.1-1.4
	c0.3-0.1,0.6-0.3,1-0.5c-0.8-0.4-1.4-0.5-2.2-0.2c0.1,0.2,0.2,0.4,0.3,0.6c-0.4,0.2-1.1,0-1.2,0.7c-0.6,0-1.2,0-1.8,0
	c-0.3,0-0.5-0.1-0.8-0.2c-0.4-0.1-0.6,0.1-0.8,0.6c0.7,0,1.3,0.1,1.9,0.2c-0.6,0.7-1.4,0.9-2,0.4c-0.4-0.3-0.7-0.4-1.2-0.3
	c-0.6,0.1-1.2,0.1-1.8,0.1c-0.2,0-0.5-0.2-0.8-0.4c-0.2,0.2-0.4,0.4-0.6,0.6c0.1,0.1,0.2,0.2,0.3,0.2c1,0.2,1.9,0.5,3,0.7
	c0,0,0.1,0,0.2,0c1.4-0.6,2.7,0.3,4.1,0.4c0.1,0,0.1,0.1,0.3,0.3c-1.4-0.1-2.5-0.2-3.8-0.2c-1.1,0-2.2-0.7-3.6,0
	c0.2,0.2,0.4,0.3,0.6,0.4c1.1,0.6,2.3,0.9,3.7,0.7c0.3-0.1,0.7,0.1,1,0.1c0,0.1,0,0.2,0,0.3c-0.7,0-1.4,0-2.1,0s-1.3-0.2-1.9,0.2
	c-0.2,0.2-0.5,0.1-0.8,0.1c-1,0-1.9,0-2.9,0c-0.7,0-1.4,0.1-2.2,0.2c-0.7,0.1-1.5,0.1-2.2,0.1c-1,0-1.9,0.4-2.7,1.1
	c-0.6,0.5-1.3,0.6-2,0.4c-0.4-0.1-0.7-0.2-1.1,0.1c-0.3,0.2-0.7,0.2-1.2,0.3c-0.1,0.2-0.1,0.4-0.2,0.8c-0.6-0.2-1.1-0.2-1.5-0.5
	c-0.5-0.4-0.9-0.4-1.3,0.1c-0.1,0.1-0.3,0.2-0.4,0.2c-1,0.2-2,0.6-2.9,1.3c-0.1,0.1-0.3,0.1-0.6,0.2c0.1,0.3,0.2,0.5,0.3,0.8
	c-0.2,0-0.3,0.1-0.4,0.1c-0.3-0.1-0.7-0.3-1-0.5c-0.7-0.4-1.3-0.6-2.1-0.5c0.1,0.3,0.1,0.4,0.2,0.6c-0.6,0.2-1.2,0.5-1.9,0.1
	c-0.2-0.1-0.7,0-1,0.1c-0.1,0-0.2,0.4-0.2,0.6c-0.5,0.5-1,0.5-1.6-0.1c-0.6,0.5-1.1,1-1.6,1.5c0.1,0.2,0.1,0.4,0.2,0.7h-3
	c0-0.1,0-0.1,0-0.2c0.4-0.1,0.8-0.2,1.3-0.3c-0.1-0.7-0.5-0.9-1-0.8c-0.6,0.1-1.3,0.3-1.9,0.6c-0.6,0.3-1.1,0.6-1.7,0.5
	c-0.2,0-0.3,0-0.4,0c-0.5,0.2-1.5,0-2.1,1c-0.6,0.9-0.8,3-1.1,3.1c-0.6,0.2-1.1,0.2-1.7,0.2c-0.5,0-1,0.5-1.7,0.8
	c-0.2-0.1-0.5-0.4-0.9-0.6c0,0-0.1-0.1-0.2-0.2c-0.2,0.3-0.3,0.6-0.5,0.9c-0.3-0.2-0.5-0.5-0.7-0.7c-0.5,0.2-1.1,0.4-1.8,0.7
	c0.2,0.3,0.4,0.7,0.6,1.2c-0.4,0.4-0.8,0.5-1.4,0.1c-0.4-0.3-0.7-0.6-1.1-0.8c-0.4-0.3-0.5-0.1-0.6,0.2c-0.1,0-0.2-0.1-0.2-0.1
	c-0.2-0.4-0.3-0.9-0.4-1.4c-0.1-0.1-0.2-0.1-0.3-0.1c-0.6,0.2-1.3,0.4-1.9,0.7c-0.3,0.2-0.5,0.6-0.6,1c0,0.2,0.3,0.5,0.5,0.8
	c0.3-0.3,0.5-0.8,1-0.4c0.2,0.1,0.6-0.2,0.9-0.3c0.3,0.2,0.7,0.3,1,0.4c0.2,0,0.3,0,0.4-0.1c0.1,0.1,0.1,0.1,0.2,0.2
	c-0.4,0.2-0.8,0.3-1.2,0.5c0.2,0.2,0.3,0.3,0.5,0.5c-0.8,0.4-1.8-0.2-2.3,1c0.2,0.4,0.2,1-0.6,1.3c-0.2,0.1-0.4,0.3-0.6,0.5
	c-0.5,0.5-1.8,1.7-2.4,1.7s-1.2,0.1-1.3,0.9c-1.2,0-0.6-0.8-0.6-1.4c-0.4,0-0.7-0.1-1.1-0.1c0.1,0.6,0.2,1,0.3,1.6
	c-0.7,0-1.3,0-1.9,0v0.1c-0.1,0-0.1,0-0.2,0c-0.2,0-0.5,0-0.7,0.1c-0.1,0-0.3,0-0.4,0s-0.2,0.1-0.3,0.1c-0.8-0.1-1.6,0.2-2.1,0.8
	c-1.4,0.2-2.7,0.5-4,1c0-0.2-0.1-0.3-0.2-0.3c-0.8-0.1-1.2-0.7-1.7-1.2c-1.1,1,0.7,0.9,0.3,1.7c-0.6,0.1-1.4,0.2-2.1,0.4
	c-0.5,0.2-0.9,0.4-1.3,0.6c-0.1,0.1-0.3,0.2-0.5,0.2c-0.8,0.1-1.7,0.1-2.5,0.1c-0.2,0-0.4-0.1-0.5,0c-0.5,0.5-1,0.3-1.5-0.1
	c-0.3,0.4-0.5,0.7-0.7,1c0.4,0.2,0.8,0.3,1.1,0.5c0,0,0,0.1,0,0.2c-0.8-0.1-1.6-0.2-2.3-0.2c-0.8,0.1-1.5,0.3-2.4,0.5
	c0.2-0.3,0.4-0.5,0.5-0.7c0-0.2-0.1-0.4-0.1-0.7c-0.7,0.1-0.9,0.6-1.2,1.1c-0.2,0.5-1.2,0.3-1.1,1.2c0.2,0.1,0.3,0.1,0.5,0.2
	c0.1,0.1,0.3,0.2,0.4,0.5c-0.2,0-0.5,0.1-0.7,0c-1-0.5-1.8-0.3-2.4,0.7c-0.7-0.2-1.4-0.3-1.6,0.5h-3.6v-0.1c0.3,0,0.7-0.1,1.1-0.2
	c-0.4-1.1-0.9-1.2-2.5-0.5c0.5,0.6-0.1,1.1-0.1,1.9c-0.4-0.2-0.7-0.3-1-0.5c0.2-0.3,0.3-0.6,0.5-0.8c-1.2,0.6-2.4,0.6-3.8,0.7
	c-0.1-0.6-0.1-1.1,0.6-1.2c0.3-0.1,0.6-0.1,0.7-0.3c0.5-0.6,1.1-0.8,1.9-0.5h0.2c0.8-0.9,1.8-0.3,2.7-0.2v-0.8
	c0.6,0,1.1,0.1,1.7,0.1c0.1-1-0.6-1.2-1.1-1.4c-0.4-0.1-0.6-0.2-0.8-0.5c-0.5-0.9-0.7-0.9-1.9-0.1c0.6,0.1,1,0.2,1.5,0.3
	c0,0,0,0.1,0,0.2c-0.3,0.1-0.6,0.2-0.9,0.2c-1-0.1-1.8,0.1-1.9,1.3c-1.2,0-2.2,0.4-3.3,1.1c0-0.4,0.1-0.8,0.1-1.1
	c-1-0.6-1.3,0.7-2.3,1c0.3-0.6,0.5-1,0.7-1.5c1.2,0.1,2.3,0.1,3.6,0.2c-0.2-0.3-0.3-0.5-0.5-0.8c0.7-0.1,1.3-0.3,2-0.4
	c0-0.1,0-0.2,0-0.3c-1.2-0.8-2.4,0.2-3.9-0.1c0.1,0.4,0.2,0.6,0.3,0.7c-0.7,0.4-1.4,0.6-2.2,0.4c-0.3-0.1-0.7,0.1-1.1,0.4
	c0.3,0.1,0.6,0.2,1,0.3c-0.5,1-1.3,0.5-2.1,0.7c0.1-0.2,0.2-0.5,0.3-0.7c-0.2-0.2-0.4-0.4-0.6-0.6c0.1-0.6,0.8-0.7,1.6-0.5
	c0.5-0.3,0.8-0.6,1.1-0.6c1.1-0.1,2.2-0.2,3.5-0.3c0.2-0.7,0.6-1.4,1.5-1.4c0.1,0,0.2-0.4,0.3-0.6c-0.2,0-0.4-0.2-0.6-0.1
	c-0.5,0.3-1.2,0.5-1.5,0.9c-0.5,0.6-1,0.4-1.5,0.1c-0.1,0-0.2-0.1-0.3-0.1c-0.3,0.7-0.3,0.7-0.9,0.7c-0.4,0-0.7-0.1-1.1-0.1
	c-0.6-0.1-1,0.1-1,0.7c-0.5,0-1,0-1.5,0.1c-0.1-0.1-0.2-0.3-0.4-0.5c-0.2,0.1-0.2,0.2-0.3,0.3c-0.5,0.7-0.8,0.8-1.4,0.2
	c-0.7-0.7-1.3-1.5-2-2.3c0.6-0.7,0.4-1.2-0.1-1.7c-0.1-0.1-0.2-0.1-0.2-0.2c0-1.1-0.9-1.3-1.6-1.8c-0.9-0.6-1-1.7-1.2-2.7
	c0-0.4,0.1-0.8-0.5-1c0.4-0.1,0.8-0.1,1.2-0.1c-1.3-1-1.5-3.2-0.7-3.9c-0.1-0.4-0.3-0.8-0.3-1.1c0.1-0.8,0.3-1.6,0.5-2.4
	c0.3-1.2,0.7-2.5,1.1-3.8c0,0,0-0.1,0-0.2c-0.1-0.3-0.2-0.6-0.1-0.8c2-0.1,3.8-0.5,5.4-1.2c1.9-0.8,3.4-2.1,4.4-3.7
	c0.9-1.4,1.4-3,1.6-4.9h1l0.7,9.5l15.4-0.4V72c0.3,0,0.6-0.1,0.9-0.1c2.2-0.5,4.5-1.1,6.7-1.4c1.8-0.3,3.5-1,5.2-1.3
	c0.3,0,0.5-0.1,0.8-0.1c-0.9,1.3-1.4,2.7-1.4,4.4c0,2,0.7,3.8,2.1,5.2c1.4,1.4,3.2,2.2,5.2,2.2c2.1,0,3.8-0.7,5.2-2.2
	c1.4-1.4,2.1-3.2,2.1-5.2c0-2.1-0.7-3.8-2.1-5.2c-0.5-0.5-0.9-0.8-1.5-1.1c3.1-0.7,6.2-1.3,9.4-1.9c2.6-0.5,5.3-1.1,7.9-1.4
	c2.4-0.2,4.7-0.9,7-1.1c3.8-0.4,7.6-0.8,11.4-1.2c1.5-0.1,3.1-0.3,4.6-0.4c3-0.1,6-0.2,9-0.3c1.2-0.1,2.3-0.1,3.5,0
	c2.7,0.4,5.6,0.1,8.3,0.5c2.7,0.4,5.6,0.6,8.3,1c0.9,0.1,1.9,0.3,2.9,0.5c0.6,0.1,1.1,0.4,1.8,0.7c0.8-0.3,1.6-0.1,2.3,0.7
	c0.3,0.3,0.7,0.5,1.2,0.9c-0.1-0.5-0.1-0.7-0.1-1c0.5,0.2,0.9,0.2,1.3,0.4c0.8,0.4,1.6,0.9,2.4,1.3c0.4,0.1,0.8,0.8,1.3,0.1h0.2
	C395,66.5,395.7,66.1,395.9,66.8z M268.1,99.6c-0.2,0-0.5-0.1-0.8-0.1c0,0.1,0,0.2,0,0.3h0.8C268.1,99.7,268.1,99.6,268.1,99.6z
	M270.3,100.2c-0.4-0.8-0.9,0.1-1.5-0.2c0,0.5,0.1,0.9,0.1,1.4C269.4,100.9,269.8,100.6,270.3,100.2z M281.8,103.9
	c-0.5-0.8-0.5-0.8-1.1-0.4C281,103.7,281.4,103.8,281.8,103.9z M282.6,97.6c-0.2,0.3-0.4,0.6-0.6,0.9
	C283.1,98.4,283.1,98.4,282.6,97.6z M285.9,103.7c-1.2-0.8-1.2-0.8-2.1-0.2c0.2,0.1,0.5,0.3,0.8,0.5c-0.8,0.1-1.5,0.3-2.1,0.4
	c0,0.1,0,0.2,0,0.3c0.4,0.2,0.9,0.4,1.2,0.5C284.5,104.6,285.1,104.2,285.9,103.7z M287.2,102.3c-0.6-0.2-1-0.4-1.4,0.2
	C286.2,102.9,286.5,102.8,287.2,102.3z M287.6,100.9c-0.6-0.5-0.7-1.3-1-2c-0.2,0.2-0.4,0.3-0.6,0.5c0.2,0.2,0.4,0.4,0.5,0.5
	c0.1,0.2,0.2,0.3,0.3,0.5c-0.4,0.4-0.9,0.7-1.2,1c0.4,0.1,1,0.3,1.8,0.5C287.5,101.6,287.7,101.2,287.6,100.9z M289.6,100.6
	c0.5-0.2,0.5-0.2,0.6-0.7C289.7,100,289.7,100,289.6,100.6z M291.1,102.6c-0.8-0.2-0.8-0.2-1.2,0.2
	C290.3,102.7,290.6,102.6,291.1,102.6z M315.8,90.8c-0.3-0.4-0.4-0.6-0.6-0.9C314.7,90.6,315,90.8,315.8,90.8z M308.6,92.3
	c0.1,0,0.3,0.1,0.4,0.1c0.1,0,0.3-0.1,0.7-0.3C309.1,91.9,309.1,91.9,308.6,92.3z M297.5,95.2c0.5,0.1,0.9,0.1,1.3,0.2
	c0-0.5,0.1-0.8,0.1-1.2C298.6,94.5,298.2,94.8,297.5,95.2z M297,96c0.3-0.1,0.6-0.2,0.9-0.3c-0.1-0.1-0.1-0.1-0.1-0.2
	c-0.3,0-0.6,0.1-0.8,0.2C297,95.8,297,95.9,297,96z M296.2,100.3c0-0.1-0.1-0.3-0.1-0.3c-0.4-0.4-1.3-0.3-2.1,0.5
	c0.7,0.1,1.3,0.2,1.8,0.2C295.9,100.7,296.1,100.5,296.2,100.3z M298.1,97.6c-0.2-0.3-0.3-0.5-0.4-0.7c-0.1,0-0.1-0.1-0.3-0.2
	c-0.4,0.3-1,0.6-0.6,1.3C297.1,97.8,297.5,97.7,298.1,97.6z M299,100.3c-0.5-0.2-0.7-0.1-0.8,0.6C298.6,100.6,298.8,100.5,299,100.3
	z M302.3,96.5c-1,0-1.9,0-2.9,0c-0.2,0-0.5-0.1-0.7,0c-0.2,0.1-0.3,0.3-0.4,0.3c0.7,0.4,1.3,0.8,2.1,1.2c0.2-0.7,0.9-0.4,1.7-0.5
	C302.2,97,302.3,96.7,302.3,96.5z M302.5,95.9c1.2,0,2.1-0.5,2.9,0.4c0.6-0.3,0.8-0.6,0.5-1.1c-0.3-0.6-0.8-1-1.3-0.8
	C304,94.6,303.2,94.9,302.5,95.9z M308.4,96.9c-0.3-0.4-0.5-0.5-0.6-0.7c-0.1-0.2-0.2-0.4-0.3-0.6c-0.3,0.1-0.8,0.2-0.9,0.5
	c-0.3,0.8-0.9,0.7-1.5,0.5c-0.8-0.2-1.5-0.2-2.2,0.3c0,0.5,0.4,0.4,0.7,0.4C305.2,97.1,306.7,97,308.4,96.9z M310.1,96.5
	c-0.1-0.1-0.1-0.2-0.1-0.3c-0.1,0-0.3,0.1-0.5,0.1c0,0.1,0.1,0.3,0.1,0.3C309.8,96.6,309.9,96.5,310.1,96.5z M316.5,93.4
	c-0.5,0-0.9-0.2-1.4-0.3c0.2-0.2,0.3-0.3,0.5-0.5c0-0.1-0.1-0.2-0.1-0.3c-1.3,0.5-2.9,0-4.1,1c-0.5,0.3-1.1,0.5-1.7,0.5
	c-0.5-0.1-1-0.2-1.6-0.1c-0.6,0.1-1.2,0.1-1.9,0.1c0.2,0.2,0.2,0.5,0.4,0.6c0.6,0.2,1.1,0.5,1.7,0.5c1,0,2.1,0,3.2-0.6
	c0.6-0.4,1-0.3,1.5,0.1c-0.5,0.1-1,0.3-1.6,0.4c0.3,0.5,0.5,0.9,0.6,1.2c1.2,0.4,2.2-0.6,3.4-0.5l0.1,0.3c-0.5,0.1-1,0.2-1.7,0.4
	c0.3,0.2,0.6,0.4,0.7,0.4c0.6-0.2,1.2-0.4,1.8-0.7c0.1-0.4,0.2-0.7,0.3-1.1c0.3,0.1,0.6,0.1,1,0.2c0.2-0.7,0.3-1.3,0.5-1.8
	C317.4,93.3,316.9,93.4,316.5,93.4z M322.6,90.9l-0.7-0.2c-0.1,0.1-0.1,0.2-0.1,0.3c0.2,0.1,0.5,0.1,0.7,0.1
	C322.6,91,322.6,90.9,322.6,90.9z M329.6,88.6l-0.2-0.1c-0.1,0.2-0.3,0.3-0.4,0.5c0.2,0,0.3,0.1,0.4,0.2
	C329.5,89.1,329.6,88.8,329.6,88.6z M330.3,87.7c-0.3-0.6-0.6-1-1.4-0.4C329.5,87.4,329.9,87.5,330.3,87.7z M330.5,85.5
	c-0.9,0.2-0.9,0.2-1,1.2C330.6,86.2,330.6,86.2,330.5,85.5z M374.6,70.9c-0.7,0-0.7,0-0.9,0.3c0,0,0,0.1,0.1,0.3
	C374,71.4,374.2,71.2,374.6,70.9z M390.1,67.3c0-0.1-0.2-0.3-0.2-0.3c-0.1,0-0.3,0.1-0.5,0.3c0.3,0.1,0.4,0.2,0.4,0.3
	C389.9,67.6,390.1,67.4,390.1,67.3z M391.2,69c-0.5-0.3-0.8-0.6-1.2,0C390.6,69.3,390.6,69.3,391.2,69z M392.5,66.5
	c-0.1,0-0.3,0-0.6-0.1c0.1,0.3,0.2,0.4,0.3,0.8C392.4,66.9,392.5,66.7,392.5,66.5z M247.7,77.1c-0.4-0.3-0.9-0.4-1.5-0.7
	c0-0.1-0.1-0.3-0.2-0.4c-0.1-0.1-0.2-0.1-0.2-0.1c-1,0.3-1.9,0.5-3,0.8c-0.3,0-0.5,0.1-0.8,0.2l-0.2-1.4c1.3,0.4,2.4-0.1,2.9-1.2
	c-0.8-0.3-1.8,0.3-2.1-0.9c-0.3,0-0.7,0-1,0l-0.6-5.8c-3.6,1-6.6,1.5-9,1.5c-2.1,0-3.7-0.3-4.8-0.8c-1.1-0.5-1.8-1.4-2.2-2.5
	c-0.4-1.1-0.6-2.6-0.6-4.4V50.4c1.3-0.2,2.5-0.3,3.7-0.7c3.8-1.2,7.6-1.6,11.5-2.3c2.6-0.5,5.3-0.8,7.9-1.2c0.4-0.1,0.8-0.2,0.9,0.5
	c0.3-0.3,0.6-0.5,0.9-0.7l0,0.5l11,0.3c3.9,0.1,6.8,0.7,8.7,1.8c2,1.1,2.9,2.7,2.9,5v0.1c-0.9-0.2-1.8-0.4-2.7-0.5
	c-1.7-0.2-3.7-0.4-6.1-0.4c-6.1,0-10.8,1.3-14.1,3.8c-3.3,2.6-5,6.3-5,11.1c0,2.2,0.4,4.1,1.1,5.7c0,0,0,0.1-0.1,0.1
	c0,0,0.1,0,0.1,0c0.2,0.5,0.4,0.9,0.7,1.3c-0.2,0.2-0.3,0.5-0.3,0.8c0.2-0.1,0.4-0.2,0.6-0.3C246.7,76,247.2,76.6,247.7,77.1z
	M243.1,71c-0.5-0.2-0.6-0.3-0.8-0.3s-0.6,0.1-0.6,0.2c-0.1,0.5,0.2,0.5,0.5,0.5C242.5,71.3,242.6,71.2,243.1,71z"/>
<path class="hola--1" d="M248.7,46.5l1-11c0,0,5.4-0.2,5-0.6c-0.9-0.8,6-1.1,5-1.8c-2.1-1.4-3.5-2.5-5.9-3.6c-3.4-1.7-7.1-2.6-10.9-2.7
	c-3.7-0.2-7.2,0.1-10.9,0.2c-0.9,0-1.7,0.1-2.4,0.9c-0.1-0.7-0.5-0.6-0.9-0.5c-1.4,0.2-2.9,0.4-4.3,0.6v27.5c0.4,0.1,1,0,1.5,0.2
	c-0.3,0.7-0.8,1.1-1.5,1.2v1c0.8-0.2,1.6-0.4,2.5-0.7c0,0,0.1,0,0.2,0.1c0.1,0.1,0.2,0.3,0.2,0.4c0.6,0.3,1.1,0.4,1.5,0.7
	c0.7,0.4,0.7,0.4,1.2-0.2c0.9-1.1,2-1.4,3.5-1.4c-0.1,0.4-0.1,0.6-0.2,1c1-0.4,1.9-0.8,3-1.2c0.6,0.5,1.5,0.5,2.4,0.3
	c1.1-0.2,2.1-0.5,3.2-0.7c0.4-0.1,0.9,0,0.9,0.5c0,1.2,0.2,2.4-0.6,3.6c-0.5,0.7-1.4,1.3-0.9,2.4c0,0.1,0,0.2,0,0.2
	c-0.4,1.2-0.8,2.5-1.1,3.8c-0.1,0.5-0.2,1-0.3,1.5c0.4-0.1,0.8-0.2,1.2-0.3l1.2,10.8c0.4,0.3,0.6,0.6,0.6,1.2c0,0.1,0.1,0.1,0.2,0.2
	c0.5,0.5,0.7,1,0.1,1.7c0.7,0.8,1.3,1.6,2,2.3c0.6,0.6,0.9,0.5,1.4-0.2c0.1-0.1,0.1-0.2,0.3-0.3c0.2,0.2,0.3,0.4,0.4,0.5
	c0.5-0.1,1-0.1,1.5-0.1c0-0.6,0.4-0.8,1-0.7c0.4,0,0.7,0.1,1.1,0.1c0.6,0,0.6,0,0.9-0.7c0.1,0,0.2,0.1,0.3,0.1
	c0.5,0.3,1,0.5,1.5-0.1c0.3-0.4,1-0.6,1.5-0.9c0.2-0.1,0.4,0.1,0.6,0.1c-0.1,0.2-0.2,0.6-0.3,0.6c-0.9,0-1.3,0.7-1.5,1.4
	c-1.2,0.1-2.3,0.2-3.5,0.3c-0.3,0-0.6,0.3-1.1,0.6c-0.8-0.2-1.5-0.1-1.6,0.5c0.2,0.2,0.4,0.4,0.6,0.6c-0.1,0.2-0.2,0.5-0.3,0.7
	c0.8-0.2,1.6,0.3,2.1-0.7c-0.4-0.1-0.7-0.2-1-0.3c0.4-0.3,0.8-0.5,1.1-0.4c0.8,0.2,1.5,0,2.2-0.4c-0.1-0.1-0.2-0.3-0.3-0.7
	c1.4,0.3,2.6-0.7,3.9,0.1c0,0.1,0,0.2,0,0.3c-0.7,0.1-1.3,0.3-2,0.4c0.2,0.3,0.3,0.5,0.5,0.8c-1.2-0.1-2.3-0.1-3.6-0.2
	c-0.2,0.5-0.4,0.9-0.7,1.5c1-0.3,1.3-1.6,2.3-1c0,0.3-0.1,0.7-0.1,1.1c1-0.7,2-1.1,3.3-1.1c0.1-1.2,0.9-1.4,1.9-1.3
	c0.3,0,0.6-0.1,0.9-0.2c0-0.1,0-0.2,0-0.2c-0.5-0.1-0.9-0.2-1.5-0.3c1.2-0.8,1.4-0.8,1.9,0.1c0.2,0.3,0.4,0.4,0.8,0.5
	c0.5,0.2,1.2,0.4,1.1,1.4c-0.6,0-1.1-0.1-1.7-0.1v0.8c-0.9-0.1-1.9-0.7-2.7,0.2h-0.2c-0.8-0.3-1.4-0.1-1.9,0.5
	c-0.1,0.2-0.4,0.2-0.7,0.3c-0.7,0.1-0.7,0.6-0.6,1.2c1.3-0.1,2.5-0.1,3.8-0.7c-0.2,0.2-0.3,0.5-0.5,0.8c0.3,0.2,0.6,0.3,1,0.5
	c0-0.8,0.6-1.3,0.1-1.9c1.6-0.7,2.1-0.6,2.5,0.5c-0.4,0.1-0.8,0.2-1.1,0.2v0.1h3.6c0.2-0.8,0.9-0.7,1.6-0.5c0.6-1,1.4-1.2,2.4-0.7
	c0.2,0.1,0.5,0,0.7,0c-0.1-0.3-0.3-0.4-0.4-0.5c-0.2-0.1-0.3-0.1-0.5-0.2c-0.1-0.9,0.9-0.7,1.1-1.2c0.3-0.5,0.5-1,1.2-1.1
	c0,0.3,0.1,0.5,0.1,0.7c-0.1,0.2-0.3,0.4-0.5,0.7c0.9-0.2,1.6-0.4,2.4-0.5c0.7,0,1.5,0.1,2.3,0.2c0-0.1,0-0.2,0-0.2
	c-0.3-0.2-0.7-0.3-1.1-0.5c0.2-0.3,0.4-0.6,0.7-1c0.5,0.4,1,0.6,1.5,0.1c0.1-0.1,0.3,0,0.5,0c0.8,0,1.7,0,2.5-0.1
	c0.2,0,0.4-0.1,0.5-0.2c0.4-0.2,0.8-0.4,1.3-0.6c0.7-0.2,1.5-0.3,2.1-0.4c0.4-0.8-1.4-0.7-0.3-1.7c0.5,0.5,0.9,1.1,1.7,1.2
	c0.1,0,0.2,0.1,0.2,0.3c1.2-0.5,2.5-0.8,4-1c0.5-0.6,1.3-0.9,2.1-0.8c0.1,0,0.2-0.1,0.3-0.1c0.1,0,0.3,0,0.4,0
	c0.2-0.1,0.5-0.1,0.7-0.1c0.1,0,0.1,0,0.2,0v-0.1c0.6,0,1.2,0,1.9,0c-0.1-0.6-0.2-1-0.3-1.6c0.4,0,0.7,0.1,1.1,0.1
	c0,0.6-0.6,1.4,0.6,1.4c0.1-0.8,0.7-0.9,1.3-0.9c0.6,0,1.9-1.2,2.4-1.7c0.2-0.2,0.4-0.4,0.6-0.5c0.8-0.3,0.8-0.9,0.6-1.3
	c0.4-1,1.1-0.8,1.8-0.9c-0.1-0.4-0.1-0.7-0.1-1.1c0-0.2,0-0.3,0-0.5c-0.1,0-0.1,0-0.2-0.1c-0.3,0.1-0.7,0.4-0.9,0.3
	c-0.5-0.4-0.7,0.1-1,0.4c-0.2-0.3-0.5-0.6-0.5-0.8c0.1-0.4,0.3-0.8,0.6-1c0.6-0.3,1.3-0.5,1.9-0.7c0.1,0,0.2,0,0.3,0.1
	c0,0.1,0,0.1,0,0.2c0.3-1.2,0.9-2.2,1.9-3.1c1.4-1.4,3.2-2.1,5.2-2.1c1.2,0,2.4,0.3,3.4,0.8c0.1,0,0.2,0,0.3-0.1c0,0.1,0,0.2,0,0.2
	c0.4,0.2,0.7,0.5,1.1,0.8c0,0,0,0,0,0c0.6-1,1.6-0.8,2.1-1c0.1,0,0.2,0,0.4,0c0.6,0.1,1.1-0.2,1.7-0.5s1.3-0.5,1.9-0.6
	c0.5-0.1,0.9,0.1,1,0.8c-0.5,0.1-0.9,0.2-1.3,0.3c0,0.1,0,0.1,0,0.2h3c-0.1-0.3-0.1-0.5-0.2-0.7c0.5-0.5,1-1,1.6-1.5
	c0.6,0.6,1.1,0.6,1.6,0.1c0-0.2,0.1-0.6,0.2-0.6c0.3-0.1,0.8-0.2,1-0.1c0.7,0.4,1.3,0.1,1.9-0.1c-0.1-0.2-0.1-0.3-0.2-0.6
	c0.8-0.1,1.4,0.1,2.1,0.5c0.3,0.2,0.7,0.4,1,0.5c0.1,0,0.2-0.1,0.4-0.1c-0.1-0.3-0.2-0.5-0.3-0.8c0.3-0.1,0.5-0.1,0.6-0.2
	c0.8-0.7,1.8-1.1,2.9-1.3c0.1,0,0.3-0.1,0.4-0.2c0.4-0.5,0.8-0.5,1.3-0.1c0.4,0.3,0.9,0.3,1.5,0.5c0.1-0.4,0.1-0.6,0.2-0.8
	c0.5-0.1,0.9-0.1,1.2-0.3c0.4-0.3,0.7-0.2,1.1-0.1c0.7,0.2,1.4,0.1,2-0.4c0.8-0.7,1.7-1.1,2.7-1.1c0.7,0,1.5,0,2.2-0.1
	c0.8-0.1,1.5-0.2,2.2-0.2c0.9,0,1.8,0,2.9,0c0.3,0,0.6,0.1,0.8-0.1c0.6-0.4,1.2-0.2,1.9-0.2c0.7,0,1.4,0,2.1,0c0-0.1,0-0.2,0-0.3
	c-0.3,0-0.7-0.2-1-0.1c-1.3,0.2-2.5-0.1-3.7-0.7c-0.2-0.1-0.4-0.2-0.6-0.4c1.3-0.7,2.4,0,3.6,0c1.2,0,2.3,0.1,3.8,0.2
	c-0.2-0.2-0.2-0.3-0.3-0.3c-1.3-0.1-2.6-1-4.1-0.4c-0.1,0-0.2,0-0.2,0c-1-0.2-1.9-0.5-3-0.7c-0.1,0-0.2-0.1-0.3-0.2
	c0.2-0.2,0.4-0.4,0.6-0.6c0.3,0.2,0.6,0.4,0.8,0.4c0.6,0,1.2,0,1.8-0.1c0.5-0.1,0.8,0,1.2,0.3c0.6,0.5,1.4,0.3,2-0.4
	c-0.6-0.1-1.2-0.2-1.9-0.2c0.2-0.5,0.4-0.7,0.8-0.6c0.3,0.1,0.5,0.2,0.8,0.2c0.6,0,1.2,0,1.8,0c0.1-0.7,0.8-0.5,1.2-0.7
	c-0.1-0.2-0.2-0.4-0.3-0.6c0.8-0.3,1.4-0.2,2.2,0.2c-0.4,0.2-0.7,0.4-1,0.5c0.4,0.5,1.5,0.4,1.1,1.4c1.1-0.2,2.1-0.4,3.2-0.6
	c-0.3-0.2-0.7-0.5-0.7-0.6c0-0.1,0-0.2,0-0.3c0,0,0,0.1-0.1,0.2c-0.3,0.5-0.8,0.5-1.3,0.1c0.2-0.4,0.5-0.7,0.7-1.1
	c-0.1-0.1-0.1-0.1-0.2-0.2c-0.3,0.1-0.5,0.2-0.7,0.3c-0.2,0-0.3-0.1-0.5-0.2c0.1-0.2,0.2-0.5,0.4-0.5c1-0.3,1.9-0.2,2.9,0.2
	c0.2,0.1,0.5,0.1,0.6,0.1c0-0.4-0.1-0.8,0.1-1c0.5-0.8,0.8,0.5,1.3,0.1c0.1-1.1-1-0.4-1.3-0.9c0.5-0.6,0.5-0.7,1.1-0.5
	c1.2,0.3,2.4,0.7,3.7,1c0.4,0.1,0.9,0.1,1.3,0.1c0.1-0.1,0.1-0.2,0.2-0.3l-1-0.6c1.6-0.7,3-0.3,4.5,0c0.1-1,0.2-1.9,0.3-2.9
	c-0.2-0.6-0.9-0.3-1.2-1h-0.2c-0.5,0.7-0.9,0-1.3-0.1c-0.8-0.4-1.6-0.9-2.4-1.3c-0.4-0.2-0.8-0.2-1.3-0.4c0,0.3,0,0.5,0.1,1
	c-0.5-0.4-0.9-0.6-1.2-0.9c-0.7-0.8-1.5-1-2.3-0.7c-0.7-0.3-1.2-0.6-1.8-0.7c-0.9-0.2-1.9-0.4-2.9-0.5c-2.7-0.4-5.6-0.6-8.3-1
	s-5.6-0.1-8.3-0.5c-1.1-0.1-2.2-0.1-3.5,0c-3,0.1-6,0.2-9,0.3c-1.5,0.1-3.1,0.3-4.6,0.4c-3.8,0.4-7.6,0.8-11.4,1.2
	c-1.3,0.1-2.6,0.4-4,0.7l-0.6,13h-9.6l-0.4-11.2c-0.1,0-0.3,0.1-0.4,0.1c-4.3,0.8-8.5,1.7-12.7,2.6c-2.3,0.5-4.7,1-7.1,1.4
	c-0.1,0-0.2,0-0.2,0.1c0.2,1.2,0.3,2.5,0.3,3.9v15.9l6,0.9v4c0.2,0,0.5,0,0.7-0.1c0.6-0.1,1.1,0,1.6,0.1c0.6,0,1.2-0.2,1.7-0.5
	c1.2-1,2.7-0.5,4.1-1c0,0.1,0.1,0.2,0.1,0.3c-0.2,0.2-0.3,0.3-0.5,0.5c0.5,0.1,0.9,0.3,1.4,0.3c0.4,0,0.9-0.1,1.5-0.2
	c-0.2,0.5-0.3,1.1-0.5,1.8c-0.4-0.1-0.7-0.1-1-0.2c-0.1,0.4-0.2,0.7-0.3,1.1c-0.6,0.3-1.2,0.5-1.8,0.7c-0.1,0-0.4-0.2-0.7-0.4
	c0.7-0.2,1.2-0.3,1.7-0.4l-0.1-0.3c-1.1-0.1-2.1,0.9-3.4,0.5c-0.1-0.3-0.3-0.7-0.6-1.2c0.6-0.1,1.1-0.3,1.6-0.4
	c-0.5-0.4-0.9-0.5-1.5-0.1c-1,0.6-2.1,0.6-3.2,0.6c-0.3,0-0.6-0.1-0.9-0.2v0.8c0.1,0,0.1,0,0.2-0.1c0.1,0.2,0.2,0.4,0.3,0.6
	c0.1,0.2,0.3,0.3,0.6,0.7c-0.4,0-0.7,0-1.1,0.1v1.7l-15.4,0.4l-0.7-9.5h-1c-0.2,1.9-0.7,3.6-1.6,4.9c-1.1,1.7-2.5,2.9-4.4,3.7
	c-1.9,0.8-4.2,1.2-6.8,1.2c-4.6,0-8.1-1.1-10.7-3.4s-3.8-5.4-3.8-9.6c0-4.8,1.7-8.5,5-11.1L248.7,46.5z M290.2,73.6
	c-0.1,0-0.3-0.1-0.4-0.1c0.4-0.4,0.4-0.4,1.1-0.2C290.5,73.5,290.3,73.6,290.2,73.6z M296.3,71c0.2,0.3,0.3,0.5,0.6,0.9
	C296.1,72,295.8,71.8,296.3,71z M232.2,51.7c0.2,0.5,0.4,0.7,0.5,1c-0.6,0.3-1.2,0.5-1.9,0.8C230.9,52.5,231.6,52.2,232.2,51.7z
	M226.9,51.4c-0.1,0.7-0.4,0.6-0.9,0.3C226.4,51.5,226.7,51.4,226.9,51.4z M229.2,56.6c-0.1,0-0.2,0-0.2,0c-0.8-0.3-1.5-0.1-2.2,0.3
	c0.1-0.8,0.4-1.1,2.2-1.7c-0.7-1.1-1.9,0.1-2.7-0.4c0.3-0.7,0.8-0.7,1.2-0.7c1.4,0,2.5,0.9,3.9,1.6
	C230.4,56.1,229.8,56.3,229.2,56.6z M230.8,53.8c0.4,0.1,0.6,0.2,1.1,0.4C231.3,54.5,231,54.4,230.8,53.8z M233.8,55
	c-0.2,0.8-0.9,0.8-1.3,1.3c-0.1,0.1-0.5,0-0.7,0c0-0.1,0-0.2,0-0.3c0.4-0.2,0.8-0.5,1.2-0.7c0.1-0.4,0.1-0.7,0.2-1.1
	C233.7,54.2,233.9,54.2,233.8,55z M235,54.6c1.1-0.3,2.2-0.7,2.5,0.9C236.6,55.9,235.8,55.7,235,54.6z M237.6,54.1
	c-0.5-0.2-0.9-0.4-1.3-0.5C237.4,53,237.7,53.1,237.6,54.1z M240.4,52.5c-0.6,0.7-0.6,0.7-1.2,0.1C239.6,52.6,239.9,52.5,240.4,52.5
	z M239.5,54.5c0.6,0.1,1,0.1,1.6,0.2C240.3,55.3,240.2,55.3,239.5,54.5z M249.3,81h-0.8c0-0.1,0-0.2,0-0.3c0.3,0,0.6,0.1,0.8,0.1
	C249.3,80.8,249.3,80.9,249.3,81z M250,82.5c0-0.5-0.1-0.9-0.1-1.4c0.6,0.3,1.1-0.6,1.5,0.2C251,81.7,250.6,82,250,82.5z
	M261.8,84.7c0.6-0.4,0.6-0.4,1.1,0.4C262.5,85,262.2,84.9,261.8,84.7z M264.9,86.4c-0.3-0.1-0.8-0.3-1.2-0.5c0-0.1,0-0.2,0-0.3
	c0.6-0.1,1.3-0.3,2.1-0.4c-0.3-0.2-0.6-0.4-0.8-0.5c0.9-0.6,0.9-0.6,2.1,0.2C266.3,85.4,265.7,85.8,264.9,86.4z M266.9,83.7
	c0.4-0.6,0.8-0.4,1.4-0.2C267.7,84,267.4,84.1,266.9,83.7z M268.5,83.1c-0.8-0.2-1.4-0.4-1.8-0.5c0.3-0.3,0.8-0.6,1.2-1
	c-0.1-0.2-0.2-0.3-0.3-0.5c-0.1-0.1-0.3-0.3-0.5-0.5c0.2-0.2,0.4-0.3,0.6-0.5c0.3,0.7,0.4,1.5,1,2C268.8,82.3,268.6,82.7,268.5,83.1
	z M270.8,81.7c0.1-0.6,0.1-0.6,0.6-0.7C271.3,81.5,271.3,81.5,270.8,81.7z M271.1,84c0.4-0.4,0.4-0.4,1.2-0.2
	C271.8,83.8,271.5,83.9,271.1,84z M277,81.8c-0.5,0-1.1-0.1-1.8-0.2c0.8-0.8,1.7-0.9,2.1-0.5c0,0,0.1,0.2,0.1,0.3
	C277.3,81.6,277.1,81.8,277,81.8z M279.3,82c0.1-0.7,0.3-0.8,0.8-0.6C279.9,81.6,279.7,81.7,279.3,82z M290.7,77.8
	c0,0-0.1-0.2-0.1-0.3c0.2,0,0.4-0.1,0.5-0.1c0,0.1,0,0.2,0.1,0.3C291,77.7,290.9,77.8,290.7,77.8z M355,52.7
	c-0.1-0.2-0.1-0.3-0.1-0.3c0.2-0.3,0.2-0.3,0.9-0.3C355.4,52.4,355.2,52.6,355,52.7z M371,48.7c0-0.1-0.1-0.2-0.4-0.3
	c0.2-0.2,0.4-0.3,0.5-0.3c0,0,0.2,0.2,0.2,0.3C371.3,48.5,371.1,48.7,371,48.7z M371.2,50.2c0.4-0.6,0.7-0.3,1.2,0
	C371.8,50.5,371.8,50.5,371.2,50.2z M373.4,48.3c-0.1-0.4-0.2-0.5-0.3-0.8c0.3,0.1,0.5,0.1,0.6,0.1C373.7,47.8,373.6,48,373.4,48.3z
	M179.6,46.5c-2.6,0-4.7,1-6.1,3.1c-1.4,2.1-2.2,5-2.2,8.8c0,3.5,0.6,6.2,1.8,8.2c0.2-0.1,0.5-0.1,0.8-0.1c-0.1,0.3-0.3,0.5-0.4,0.7
	c0.2,0.2,0.3,0.5,0.5,0.7c0.2-0.2,0.5-0.4,0.7-0.5c0.3-0.1,0.7-0.2,0.9,0.2c0.1,0.5,0,0.9-0.5,1c-0.1,0-0.2,0-0.3,0.1
	c0.8,0.7,1.7,1.1,2.8,1.4c0.3-0.1,0.6-0.1,0.9-0.1c0.1,0,0.1-0.1,0.2-0.2c-0.2-0.1-0.4-0.2-0.6-0.3c0.3-0.7,0.9-0.8,1.4-0.7
	c0.4,0,0.9,0.2,1.3,0.2c1.3,0,2.7,0.4,3.6-1.1c0.2,0,0.5,0.1,0.7,0.1c0.2-0.2,0.4-0.5,0.5-0.7c0.3-0.5,0.6-1,0.9-1.5c0,0,0,0,0,0
	c-0.8,0.3-1.6,0.6-2.4,0.7c-0.8,0.1-1.1-0.2-1.3-1c0.8,0,1.6,0,2.4,0c0.2,0,0.5,0,0.6-0.1c0.3-0.5,0.7-0.6,1.2-0.8
	c0.5-1.7,0.8-3.7,0.8-6c0-3.8-0.7-6.7-2.1-8.8C184.3,47.6,182.2,46.5,179.6,46.5z M176.7,68.3c-0.2,0-0.4,0-0.6,0.1
	c0-0.1,0-0.1-0.1-0.2c0.1-0.1,0.2-0.2,0.4-0.2c0.1,0,0.2,0.1,0.4,0.1C176.7,68.2,176.7,68.3,176.7,68.3z M177.3,65.5
	c-0.5,0.1-1,0.1-1.6,0.2c0.3-0.5,0.4-0.8,0.6-1.1c0.2-0.2,0.5-0.3,0.7-0.2c0.2,0.1,0.5,0.3,0.6,0.5C177.6,65,177.4,65.4,177.3,65.5z
	M180.7,63.5c0.3,0,0.7,0.1,1.2,0.2c-0.5,0.5-0.9,0.3-1.2,0.1C180.7,63.7,180.7,63.6,180.7,63.5z M178.8,65.7
	c0.9-1.1,0.9-1.1,2.2,0.3C180.2,66.2,179.6,65.9,178.8,65.7z M181.1,65.1c0.5-0.7,0.8-0.4,1.1,0.3C181.6,65.2,181.4,65.1,181.1,65.1
	z M187.2,62.3c-0.1,0.5-0.5,0.5-0.9,0.7c-0.7,0.3-0.7,0.3-0.7,1.1c-0.8,0.3-0.8-0.7-1.4-0.8C185.1,62.6,186.5,62.2,187.2,62.3z
	M267.2,70.1c-1.6,0.9-3.6,1.3-6,1.3c-2,0-3.5-0.4-4.5-1.2s-1.5-1.9-1.5-3.3c0-3.2,2.8-4.9,8.5-4.9c1.5,0,3,0,4.3,0.1
	c1.2,0.1,2.5,0.2,3.9,0.5c0,1.4-0.4,2.7-1.2,4C270,68.1,268.8,69.2,267.2,70.1z M152.8,79.9c-0.2,0.3-0.4,0.7-0.6,1
	c-0.4,0-0.9-0.1-1.3-0.1c0,0,0-0.1,0-0.2c0.1-0.1,0.3-0.2,0.5-0.3c0.2-0.1,0.3-0.2,0.5-0.3c-0.1-0.1-0.2-0.1-0.3-0.1H152.8z
	M160.1,58.4c0-7,1.8-13,5.1-16.9c-0.3,0.1-3.4,0.1-3.8,0.2c-0.6,0.2-3.1,2.3-3.8,2.5c-0.5,0.1-1,0.3-1.5,0.4v33.6
	c0.2-0.1,0.4-0.2,0.5-0.3c0.8-0.8,1.7-0.8,2.6-0.8c0.4,0,0.8,0.1,1.2,0.1c0.3-1.3,1.2-2,2.3-2.3c0.3-0.1,0.9-0.2,1,0
	c0.5,0.6,0.8,0.3,1.2,0c0,0,0.1,0,0.1-0.1C161.8,71,160.1,65.5,160.1,58.4z M157.7,76.3c-0.3,0-0.5-0.4-1-0.8
	c0.6-0.1,0.9-0.1,1.2-0.2c-0.1-0.3-0.1-0.5-0.2-1c0.7,0.2,1.2,0.4,1.7,0.6C159.1,75.8,158.6,76.3,157.7,76.3z M159.9,70.6h1
	C160.5,71.1,160.2,71.1,159.9,70.6z M364.4,53.2C364.4,53.2,364.4,53.2,364.4,53.2c0.6,0.2,0.9,0.4,0.7,0.9
	C365,53.7,364.7,53.5,364.4,53.2z M213.5,59.7c-0.5,0.4-1,0.6-1.7,0.4c0.5-0.6,0.9-1.2,1.4-1.7c0.1-0.1,0.2-0.1,0.3-0.2v-0.7
	c0,0-0.1-0.1-0.1-0.1c0,0,0.1,0,0.1,0V29.8c-1.4,0.3-2.8,0.6-4.2,1.1c-1.5,0.5-3.2,0.6-4.8,0.9c-3.3,0.7-6.4,1.5-9.7,2.2
	c-3.4,0.7-11.2,2-11.4,2c4,0.7,7.9,3,10.4,5.9c3.4,3.9,5.1,9.4,5.1,16.5c0,1,0,1.9-0.1,2.8c0.1,0,0.1,0,0.2,0c0.2,0,0.5-0.1,0.7-0.2
	c1.2-0.7,1.5-0.7,2.9,0.2c-0.8,0.3-1.4,0.6-1.9,0.9c-0.7-0.5-1.3-0.3-1.9-0.1c0,0.5-0.1,1-0.2,1.5c0,0,0.1,0,0.1,0
	c0.7,0,1.5,0.3,2.1-0.4c0.1-0.1,0.6,0,0.7,0.1c0.6,0.4,1.1,0.4,1.8,0.3c-0.3-1-0.3-1.1,0.7-1.3c0.7-0.1,1.3-0.1,2.1-0.2
	c-0.2-0.5,0.1-0.8,0.6-0.7c0.4,0,0.7,0.1,1.1,0.2c0.4,0.2,0.7,0.2,1.1,0.1c0.4-0.1,0.9-0.1,1.4-0.2c1-0.1,2.1-0.2,2.8-0.8V59.7z
	M212,52.2c0.1,0.1,0.2,0.2,0.4,0.5c-0.3,0.1-0.5,0.2-0.5,0.2c-0.1-0.1-0.2-0.3-0.3-0.5C211.8,52.3,212,52.2,212,52.2z M211.9,55.6
	c0,0.1,0,0.1,0.1,0.2l-0.4,0.2c0-0.1-0.1-0.2-0.1-0.3C211.5,55.7,211.7,55.7,211.9,55.6z M211.4,54.6c-0.5,0.4-0.5,0.4-1.3-0.2
	C210.7,54.1,211.1,54,211.4,54.6z M200.8,59.8c-0.9-0.6-1-0.9-0.4-1.5c0.2-0.3,0.6-0.4,0.9-0.6c0.2-0.1,0.5-0.1,0.6-0.3
	c0.1-0.1,0.2-0.4,0.3-0.6c0.9,0.7,1.8,0.9,2.4,1.5c0,0.1-0.1,0.2-0.1,0.3c-0.4-0.1-0.8-0.2-1.3-0.3c0,0.2,0,0.3,0.1,0.5
	C202.5,59.2,201.3,58.7,200.8,59.8z M204.2,60.8c-0.7,0.3-1.3,0.2-1.7-0.6c0.6,0.1,1.2,0.2,1.8,0.3
	C204.2,60.6,204.2,60.7,204.2,60.8z M204.7,60.1c-0.2,0-0.4-0.1-0.4-0.3c0-0.1,0.1-0.3,0.3-0.5c0.2,0.2,0.3,0.3,0.4,0.5
	C204.9,59.9,204.7,60.2,204.7,60.1z M208.7,59.5c-0.2,0.6-0.7,0.7-1.2,0.8c-0.7,0.1-1.4,0.2-2.1-0.2c0.1-1,0.7-1.2,1.4-1.4
	c0-0.6,0.4-1.2,0.9-1.5c0.7-0.4,1,0,1.4,0.6c-0.4,0.1-0.6,0.2-1,0.4C208.8,58.5,208.9,58.9,208.7,59.5z M209.2,58.7
	c0.7-0.5,0.9-0.5,1.7,0.1C210.1,59.4,210,59.3,209.2,58.7z M212.9,57.2c-0.7,0.4-0.9-0.4-1.5-0.4C212.2,56.1,212.5,56.7,212.9,57.2z
	M149,81c0.2-0.5,0.7-0.9,1.2-1.1h-4.8V56h-17.3v23.9h-10.7V28.6c-0.5-0.3-1-0.7-1.6-1c-1.6-0.9-3.4-1.8-5.1-2.5
	c-1.6-0.7-3.3-1.2-5-1.5c-4.9-0.8-9.9-1.1-14.9-0.5c-2.3,0.3-4.8,0.4-7.1,0.8c-3.5,0.6-6.9,1.4-10.4,2.2
	c-11.3,2.5-22.3,6.1-33.2,10.1c-3.5,1.2-6.8,2.5-10.2,3.9c-1.1,0.4-2.1,0.5-3.4,0.3c-1.7-0.3-3.2,0.6-3.8,2.3
	c0.1,0.1,0.2,0.2,0.3,0.2c0.9,0.4,0.9,0.4,0.8,1.4c-0.1,0.9-0.1,1.8,0,2.6c0.1,1.4,0.7,2.9,0.2,4.4c-0.1,0.2,0.1,0.5,0.1,0.7
	c0,0.2,0.1,0.4,0.1,0.4c-0.5,0.5-0.1,1.1-0.1,1.6c0.1,0.6,0.3,1.2,0.2,1.9c-0.1,0.4,0.1,1,0.3,1.4c0.6,0.8,0.6,1.7,0.7,2.6
	c0.1,0.4,0.1,0.9,0.3,1.2c1,1.9,2.1,3.9,3.3,5.8c0.8,1.3,1.5,2.6,2.5,3.8c0.9,1,2.1,1.8,3.2,2.7c0.3,0.2,0.7,0.3,0.9,0.6
	c0.7,0.8,1.4,1.6,2.1,2.3c0.4,0.4,1,0.9,1.6,1.1c1.2,0.5,2.5,0.8,3.9,1.2c0.9,0.2,1.8,0.3,2.7,0c0.3-0.1,0.6-0.1,1-0.1
	c1.7,0.1,3.2-0.5,4.4-1.6c0.3-0.3,0.7-0.5,1.1-0.8c0.7-0.5,1.5-0.8,2.4-0.8c1.4,0,2.7-0.4,3.8-1.4c0.2-0.2,0.5-0.4,0.8-0.4
	c1-0.1,1.7-0.7,2.2-1.5c0.5-0.7,1.1-0.9,1.8-0.9c0.8,0,1.6-0.2,2.3-0.6c1.1-0.5,2.3-1,3.6-1.4c1.4-0.5,3-0.8,4.2-1.5
	c0.3-0.2,0.8-0.1,1.3-0.2c0.5-0.1,1.2-0.1,1.6-0.4c1.1-0.7,2.2-1,3.6-1.3c1.3-0.3,2.6-0.7,4-1.1c1.1-0.4,2.1-0.8,3.3-1.2
	c0.2-0.1,0.6,0,0.8,0c0.2,0,0.3,0,0.5,0l0.2-4.2h9.6l0.1,1.4c0.5-0.2,1-0.3,1.6-0.5c0.5-0.2,1-0.6,1.5-0.9c0.6,0.7,0.6,1.4,0.5,2.1
	c-0.1,0.5-0.2,1-0.3,1.5c-0.1,1-0.3,1.9-0.3,3c0,1,0.3,2.1,0.4,3.2c0.4,3.6,1.4,6.8,4,9.4c0.9,1,1.5,2.2,2.6,3.2
	c0.4,0.3,0.7,0.9,1,1.4c0.7,1,1.8,1.4,3,1.8c0,0.5,0.2,0.7,0.7,0.5c0.5-0.1,1-0.3,1.2-0.4c1,0.1,0.5,0.9,1,1.2
	c0.4,0.3,0.7,0.8,1.1,1.3c-0.3,0.8-0.9,1.5-0.8,2.4c0.4-0.4,0.7-0.8,0.9-1.2c0.3-0.5,0.4-1,1-1.3c0.5,1.6,1.7,0.9,2.9,0.9
	c-0.1-0.7-0.5-0.7-0.9-0.8c-0.3-0.1-0.7-0.1-1.1-0.2c-0.2-0.1-0.3-0.3-0.5-0.5c1.1,0,1.9-0.1,2.9-0.1c0.7,0,1,0.4,1,1.2
	c0.7-0.7,1.3-0.6,2-0.2c0.8,0.5,1.7,0.8,2.6,1.1c0.3-0.3,0.6-0.6,1-0.7c0.4-0.2,0.9-0.4,1.2-0.3c0.3,0.1,0.6,0.5,0.8,0.9
	c0.5-0.1,1-0.2,1.6-0.4c-0.5-0.5-1.6-0.1-1.1-1.2c0.8-0.1,1.6,0.4,2.5,0c0.7-0.3,1.6-0.4,2.5-0.6c0-0.4-0.1-0.7-0.1-1.1
	c0.4-0.1,0.7-0.1,1.1-0.2c0.1-0.5,0.2-1,0.3-1.5c1.4-0.6,2.4,0,3.3,1c-0.1,0.3-0.2,0.5-0.3,0.9c0.5-0.1,0.8-0.2,1-0.3
	c-0.4-0.9,0.4-0.7,0.8-0.9c0.4-0.2,0.9-0.4,1-0.8c0.3-0.7,0.8-0.6,1.3-0.6c0.6,0,1.3,0.2,1.6,0c0.8-0.6,1.6-0.4,2.4-0.4
	c1-0.1,2-0.3,2.9-1.2C150.2,81.2,149.6,81.1,149,81z M99.2,48.3c-1.4,1.4-3.2,2.1-5.2,2.1c-2.1,0-3.8-0.7-5.2-2.1
	c-1.4-1.4-2.1-3.2-2.1-5.2c0-2,0.7-3.8,2.1-5.2c1.4-1.4,3.2-2.2,5.2-2.2c2.1,0,3.8,0.7,5.2,2.2c1.4,1.4,2.1,3.2,2.1,5.2
	C101.3,45.1,100.6,46.9,99.2,48.3z M112.8,84.9c-0.7-0.7-0.7-0.7-0.1-1.3c0.2,0.3,0.4,0.7,0.6,1C113.1,84.7,112.9,84.8,112.8,84.9z
	M132.2,81.9c0.3-0.4,0.6-0.6,1.2-0.3C133,82.1,132.7,82.1,132.2,81.9z M141.7,80.6c-0.2,0-0.5,0-0.7-0.1c0-0.1,0-0.1,0-0.2
	c0.1,0,0.3-0.1,0.4-0.1s0.2,0.1,0.3,0.2C141.8,80.5,141.7,80.6,141.7,80.6z"/>
<path class="hola--2" d="M357,27.7h-0.2c-0.5,0.7-0.9,0-1.3-0.1c-0.8-0.4-1.6-0.9-2.4-1.3c-0.4-0.2-0.8-0.2-1.3-0.4c0,0.3,0,0.5,0.1,1
	c-0.5-0.4-0.9-0.6-1.2-0.9c-0.7-0.8-1.5-1-2.3-0.7c-0.7-0.3-1.2-0.6-1.8-0.7c-0.9-0.2-1.9-0.4-2.9-0.5c-2.7-0.4-5.6-0.6-8.3-1
	c-2.7-0.4-5.6-0.1-8.3-0.5c-1.1-0.1-2.2-0.1-3.5,0c-3,0.1-6,0.2-9,0.3c-0.1,0-0.2,0-0.2,0l-0.9,20.7c0.7-0.4,1.5-0.7,2.2-0.9
	c0.1,0,0.3-0.1,0.4-0.2c0.4-0.5,0.8-0.5,1.3-0.1c0.4,0.3,0.9,0.3,1.5,0.5c0.1-0.4,0.1-0.6,0.2-0.8c0.5-0.1,0.9-0.1,1.2-0.3
	c0.4-0.3,0.7-0.2,1.1-0.1c0.7,0.2,1.4,0.1,2-0.4c0.8-0.7,1.7-1.1,2.7-1.1c0.7,0,1.5,0,2.2-0.1c0.8-0.1,1.5-0.2,2.2-0.2
	c0.9,0,1.8,0,2.9,0c0.3,0,0.6,0.1,0.8-0.1c0.6-0.4,1.2-0.2,1.9-0.2c0.7,0,1.4,0,2.1,0c0-0.1,0-0.2,0-0.3c-0.3,0-0.7-0.2-1-0.1
	c-1.3,0.2-2.5-0.1-3.7-0.7c-0.2-0.1-0.4-0.2-0.6-0.4c1.3-0.7,2.4,0,3.6,0c1.2,0,2.3,0.1,3.8,0.2c-0.2-0.2-0.2-0.3-0.3-0.3
	c-1.3-0.1-2.6-1-4.1-0.4c-0.1,0-0.2,0-0.2,0c-1-0.2-1.9-0.5-3-0.7c-0.1,0-0.2-0.1-0.3-0.2c0.2-0.2,0.4-0.4,0.6-0.6
	c0.3,0.2,0.6,0.4,0.8,0.4c0.6,0,1.2,0,1.8-0.1c0.5-0.1,0.8,0,1.2,0.3c0.6,0.5,1.4,0.3,2-0.4c-0.6-0.1-1.2-0.2-1.9-0.2
	c0.2-0.5,0.4-0.7,0.8-0.6c0.3,0.1,0.5,0.2,0.8,0.2c0.6,0,1.2,0,1.8,0c0.1-0.7,0.8-0.5,1.2-0.7c-0.1-0.2-0.2-0.4-0.3-0.6
	c0.8-0.3,1.4-0.2,2.2,0.2c-0.4,0.2-0.7,0.4-1,0.5c0.4,0.5,1.5,0.4,1.1,1.4c1.1-0.2,2.1-0.4,3.2-0.6c-0.3-0.2-0.7-0.5-0.7-0.6
	c0-0.1,0-0.2,0-0.3c0,0,0,0.1-0.1,0.2c-0.3,0.5-0.8,0.5-1.3,0.1c0.2-0.4,0.5-0.7,0.7-1.1c-0.1-0.1-0.1-0.1-0.2-0.2
	c-0.3,0.1-0.5,0.2-0.7,0.3c-0.2,0-0.3-0.1-0.5-0.2c0.1-0.2,0.2-0.5,0.4-0.5c1-0.3,1.9-0.2,2.9,0.2c0.2,0.1,0.5,0.1,0.6,0.1
	c0-0.4-0.1-0.8,0.1-1c0.5-0.8,0.8,0.5,1.3,0.1c0.1-1.1-1-0.4-1.3-0.9c0.5-0.6,0.5-0.7,1.1-0.5c1.2,0.3,2.4,0.7,3.7,1
	c0.4,0.1,0.9,0.1,1.3,0.1c0.1-0.1,0.1-0.2,0.2-0.3l-1-0.6c1.6-0.7,3-0.3,4.5,0c0.1-1,0.2-1.9,0.3-2.9C358,28.1,357.3,28.4,357,27.7z
	M336.1,33.5c-0.1-0.2-0.1-0.3-0.1-0.3c0.2-0.3,0.2-0.3,0.9-0.3C336.6,33.2,336.4,33.4,336.1,33.5z M352.1,29.5
	c0-0.1-0.1-0.2-0.4-0.3c0.2-0.2,0.4-0.3,0.5-0.3c0,0,0.2,0.2,0.2,0.3C352.4,29.3,352.2,29.5,352.1,29.5z M352.3,30.9
	c0.4-0.6,0.7-0.3,1.2,0C353,31.2,353,31.2,352.3,30.9z M354.6,29.1c-0.1-0.4-0.2-0.5-0.3-0.8c0.3,0.1,0.5,0.1,0.6,0.1
	C354.9,28.6,354.8,28.8,354.6,29.1z M137.9,56c0.5,0.4,0.7,1.1,1,1.1c0.8,0,1.3-0.2,1.7-1.1h3.1c-1,0.3-1.8,0.8-2.1,2
	c-0.4,0-0.8-0.1-1.2-0.1c-0.9,0-1.8,0-2.6,0.8c-0.3,0.3-0.9,0.5-1.4,0.5c-1.7-0.1-2.3,1.2-3.1,2.4c-0.4,0-0.9-0.1-1.3-0.1
	c0,0,0-0.1,0-0.2c0.1-0.1,0.3-0.2,0.5-0.3c0.2-0.1,0.3-0.2,0.5-0.3c-0.9-0.6-2.4-0.1-2.9,1c0.6,0.1,1.2,0.2,1.8,0.3
	c-0.8,0.9-1.8,1.1-2.9,1.2c-0.3,0-0.7,0-1,0V56H137.9z M128.1,28c0.4-0.1,0.7-0.2,1.1-0.3c3.3-0.8,6.4-1.7,9.6-2.6
	c0.7-0.2,5.8-1.6,6.4-1.8c0.1,0,0.1,0,0.2-0.1v22.7h-17.3V28z M117.4,66V31c-0.7,0.2-1.4,0.4-2.2,0.6c-1.7,0.5-3.5,0.8-5.3,1.1
	c-0.3,0.1-0.6,0-0.9-0.1c0-0.6-0.1-1.2,0-1.6c0.3-1.1-0.1-1.9-0.5-2.9c-0.2-0.3-0.4-0.6-0.4-1c-0.2-1.1-0.4-2.3-0.4-3.5
	c-0.1-1.7-0.6-3.4-1.3-4.9c-0.1-0.3-0.2-0.5-0.3-0.8c-0.4-1.5-0.8-3.2-2.4-4c-0.2-0.1-0.2-0.3-0.4-0.5c-1.8-1.9-3.9-3.7-6.2-5
	c-1.6-0.9-3.4-1.8-5.1-2.5c-1.6-0.7-3.3-1.2-5-1.5c-4.9-0.8-9.9-1.1-14.9-0.5c-2.3,0.3-4.8,0.4-7.1,0.8c-3.5,0.6-6.9,1.4-10.4,2.2
	C43.3,9.5,32.3,13,21.4,17c-3.5,1.2-6.8,2.5-10.2,3.9c-1.1,0.4-2.1,0.5-3.4,0.3c-1.7-0.3-3.2,0.6-3.8,2.3c0.1,0.1,0.2,0.2,0.3,0.2
	c0.9,0.4,0.9,0.4,0.8,1.4c-0.1,0.9-0.1,1.8,0,2.6c0.1,1.4,0.7,2.9,0.2,4.4c-0.1,0.2,0.1,0.5,0.1,0.7s0.1,0.4,0.1,0.4
	c-0.5,0.5-0.1,1.1-0.1,1.6c0.1,0.6,0.3,1.2,0.2,1.9c-0.1,0.4,0.1,1,0.3,1.4c0.6,0.8,0.6,1.7,0.7,2.6c0.1,0.4,0.1,0.9,0.3,1.2
	c1,1.9,2.1,3.9,3.3,5.8c0.8,1.3,1.5,2.6,2.5,3.8c0.9,1,2.1,1.8,3.2,2.7c0.3,0.2,0.7,0.3,0.9,0.6c0.7,0.8,1.4,1.6,2.1,2.3
	c0.4,0.4,1,0.9,1.6,1.1c1.2,0.5,2.5,0.8,3.9,1.2c0.9,0.2,1.8,0.3,2.7,0c0.3-0.1,0.6-0.1,1-0.1c1.7,0.1,3.2-0.5,4.4-1.6
	c0.3-0.3,0.7-0.5,1.1-0.8c0.7-0.5,1.5-0.8,2.4-0.8c1.4,0,2.7-0.4,3.8-1.4c0.2-0.2,0.5-0.4,0.8-0.4c1-0.1,1.7-0.7,2.2-1.5
	c0.5-0.7,1.1-0.9,1.8-0.9c0.8,0,1.6-0.2,2.3-0.6c1.1-0.5,2.3-1,3.6-1.4c1.4-0.5,3-0.8,4.2-1.5c0.3-0.2,0.8-0.1,1.3-0.2
	c0.5-0.1,1.2-0.1,1.6-0.4c1.1-0.7,2.2-1,3.6-1.3c1.3-0.3,2.6-0.7,4-1.1c1.1-0.4,2.1-0.8,3.3-1.2c0.2-0.1,0.6,0,0.8,0
	c0.7,0,1.4,0,1.9-0.5c0.2-0.1,0.4-0.3,0.6-0.3c1.2-0.3,2.5-0.5,3.7-1.2c0.1-0.1,0.4,0,0.6,0.1c0.2,0,0.4,0.2,0.5,0.1
	c1.5-0.5,3.1-0.9,4.6-1.4c0.5-0.2,1-0.6,1.5-0.9c0.6,0.7,0.6,1.4,0.5,2.1c-0.1,0.5-0.2,1-0.3,1.5c-0.1,1-0.3,1.9-0.3,3
	c0,1,0.3,2.1,0.4,3.2c0.4,3.6,1.4,6.8,4,9.4c0.6,0.7,1.1,1.5,1.7,2.2l0.1-2.1h9.6l0.4,8.9c0,0,0,0,0,0c0.5,1.6,1.7,0.9,2.9,0.9
	c-0.1-0.7-0.5-0.7-0.9-0.8c-0.3-0.1-0.7-0.1-1.1-0.2c-0.2-0.1-0.3-0.3-0.5-0.5c1.1,0,1.9-0.1,2.9-0.1c0.7,0,1,0.4,1,1.2
	c0.7-0.7,1.3-0.6,2-0.2c0.8,0.5,1.7,0.8,2.6,1.1c0.3-0.3,0.6-0.6,1-0.7c0.4-0.2,0.9-0.4,1.2-0.3s0.6,0.5,0.8,0.9
	c0.5-0.1,1-0.2,1.6-0.4c-0.5-0.5-1.6-0.1-1.1-1.2c0.8-0.1,1.6,0.4,2.5,0c0.7-0.3,1.6-0.4,2.5-0.6c0-0.4-0.1-0.7-0.1-1.1
	C116.8,66.1,117.1,66.1,117.4,66z M99.2,48.3c-1.4,1.4-3.2,2.1-5.2,2.1c-2.1,0-3.8-0.7-5.2-2.1c-1.4-1.4-2.1-3.2-2.1-5.2
	c0-2,0.7-3.8,2.1-5.2c1.4-1.4,3.2-2.2,5.2-2.2c2.1,0,3.8,0.7,5.2,2.2c1.4,1.4,2.1,3.2,2.1,5.2C101.3,45.1,100.6,46.9,99.2,48.3z
	M113.4,62.7c0.3-0.4,0.6-0.6,1.2-0.3C114.2,62.9,113.9,62.9,113.4,62.7z M299.9,47.6h2.9l0-0.3c0-0.1-0.1-0.3-0.1-0.4
	c0,0,0.1-0.1,0.1-0.1l-0.9-22.8c-1.1,0.1-2.3,0.2-3.4,0.4c-2.3,0.2-4.6,0.9-7,1.1c-2.6,0.3-5.3,0.9-7.9,1.4
	c-4.3,0.8-8.5,1.7-12.7,2.6c-2.3,0.5-4.7,1-7.1,1.4c-1.7,0.3-3.4,1-5.2,1.3c-2.2,0.3-4.5,0.9-6.7,1.4c-0.4,0.1-0.8,0.2-1.2,0.1
	c-0.5-0.1-0.9-0.5-1.4-0.8c0.2-0.2,0.6-0.6,0.5-0.7c-0.2-0.6,0.5-1.3,0-1.9c-0.2-0.2-0.1-0.8,0-1c0.8-1.2,0.3-2.2-0.2-3.4
	c-0.1-0.2-0.1-0.5-0.1-0.7c-0.2-1.1-0.5-2.1-0.8-3.3c-0.1-0.5-0.4-0.9-0.5-1.3c-0.2-0.6-0.5-1.1-1.3-1c0.1-0.7,0-1.4-0.9-1.6
	c-0.1,0-0.2-0.2-0.3-0.4c-0.3-0.4-0.6-0.8-1-1.2c-0.9-0.8-1.8-1.5-2.7-2.2c-2.1-1.4-4.2-3-6.5-4.1c-3.4-1.7-7.1-2.6-10.9-2.7
	c-3.7-0.2-7.2,0.1-10.9,0.2c-0.9,0-1.7,0.1-2.4,0.9c-0.1-0.7-0.5-0.6-0.9-0.5c-2.6,0.4-5.3,0.7-7.9,1.2c-3.9,0.7-7.7,1.1-11.5,2.3
	c-1.5,0.5-3.2,0.6-4.8,0.9c-3.3,0.7-6.4,1.5-9.7,2.2c-3.4,0.7-6.5,1.9-10,2.2c-0.1,0-0.2,0.1-0.3,0.1c-1,0.4-1.9,0.8-3,1
	c-1,0.3-1.9,0.7-3,1c-1.3,0.3-2.5,0.6-3.8,1v28c0.3-0.1,0.6-0.1,0.7,0.3c0.1,0.5,0,0.9-0.5,1c-0.1,0-0.1,0-0.2,0v1.8
	c0.1,0,0.2,0,0.3,0c1.1,0.2,2.1-0.5,3.3-0.5c0.1,0,0.1-0.1,0.2-0.2c-0.2-0.1-0.4-0.2-0.6-0.3c0.3-0.7,0.9-0.8,1.4-0.7
	c0.1,0,0.3,0,0.4,0.1c0.2-0.9,0.5-1.8,0.9-2.7c-0.7,0-1.3-0.1-2-0.3c0.9-1.1,0.9-1.1,2.1,0.1c0.1-0.3,0.2-0.5,0.3-0.7
	c-0.1,0-0.1,0-0.2,0c0.1-0.2,0.3-0.3,0.4-0.4c0.7-1.5,1.6-2.8,2.6-4c3.4-3.9,8.2-5.8,14.4-5.8c3.7,0,6.9,0.7,9.6,2.1
	c0.4-0.1,0.6,0.1,0.8,0.5c0.5,0.3,0.9,0.6,1.4,0.9c0.2,0.1,0.4,0.2,0.7,0.4c0,0-0.1,0-0.1,0.1c0.4,0.3,0.8,0.7,1.2,1
	c0.4-0.5,0.8-1.1,1.3-1.5c0.2-0.2,0.5-0.3,0.8-0.4c0.1,0.4,0.3,0.9-0.1,1.3c-0.5,0.5-1,0.9-1.7,0.9c0.2,0.2,0.4,0.4,0.6,0.6
	c0.1,0.1,0.1,0.1,0.1,0.2c0.6-0.3,1.2-0.8,1.4-1.8c0.9,0.2,1.9-0.6,2.6,0.4c0.1,0.1,0.3,0,0.5,0c0.5-0.2,1-0.4,1.5-0.5
	c0.5-0.1,0.9-0.2,1.7-0.3c0.3-0.3,0.8-0.5,1.5-0.4c0.6,0,1.1-0.3,1.7-0.4c1-0.3,1.9-0.5,3-0.8c0,0,0.1,0,0.2,0.1
	c0.1,0.1,0.2,0.3,0.2,0.4c0.6,0.3,1.1,0.4,1.5,0.7c0.7,0.4,0.7,0.4,1.2-0.2c0.6-0.8,1.4-1.2,2.2-1.3v-0.5c-0.2,0-0.4,0-0.6,0
	c0-0.1,0-0.2,0-0.3c0.2-0.1,0.4-0.2,0.6-0.3v-2.8c-0.5,0.2-1,0.4-1.6,0.7c0.1-1,0.8-1.3,1.4-1.8c0.1,0.2,0.1,0.3,0.2,0.4v-4.1h-12.2
	V18.7h12.2h0.7h10.2v42.2c0.3,0.4,0.3,0.8,0,1.2c0,0.1,0,0.3,0,0.4c0.6,0.7,1.2,1.5,1.9,2.1c0.6,0.6,0.9,0.5,1.4-0.2
	c0.1-0.1,0.1-0.2,0.3-0.3c0.2,0.2,0.3,0.4,0.4,0.5c0.5-0.1,1-0.1,1.5-0.1c0-0.6,0.4-0.8,1-0.7c0.4,0,0.7,0.1,1.1,0.1
	c0.6,0,0.6,0,0.9-0.7c0.1,0,0.2,0.1,0.3,0.1c0.5,0.3,1,0.5,1.5-0.1c0.3-0.4,1-0.6,1.5-0.9c0.2-0.1,0.4,0.1,0.6,0.1
	c-0.1,0.2-0.2,0.6-0.3,0.6c-0.9,0-1.3,0.7-1.5,1.4c-1.2,0.1-2.3,0.2-3.5,0.3c-0.3,0-0.6,0.3-1.1,0.6c-0.8-0.2-1.5-0.1-1.6,0.5
	c0.2,0.2,0.4,0.4,0.6,0.6c-0.1,0.2-0.2,0.5-0.3,0.7c0.8-0.2,1.6,0.3,2.1-0.7c-0.4-0.1-0.7-0.2-1-0.3c0.4-0.3,0.8-0.5,1.1-0.4
	c0.8,0.2,1.5,0,2.2-0.4c-0.1-0.1-0.2-0.3-0.3-0.7c1.4,0.3,2.6-0.7,3.9,0.1c0,0.1,0,0.2,0,0.3c-0.7,0.1-1.3,0.3-2,0.4
	c0.2,0.3,0.3,0.5,0.5,0.8c-1.2-0.1-2.3-0.1-3.6-0.2c-0.2,0.5-0.4,0.9-0.7,1.5c1-0.3,1.3-1.6,2.3-1c0,0.3-0.1,0.7-0.1,1.1
	c1-0.7,2-1.1,3.3-1.1c0.1-1.2,0.9-1.4,1.9-1.3c0.3,0,0.6-0.1,0.9-0.2c0-0.1,0-0.2,0-0.2c-0.5-0.1-0.9-0.2-1.5-0.3
	c1.2-0.8,1.4-0.8,1.9,0.1c0.2,0.3,0.4,0.4,0.8,0.5c0.5,0.2,1.2,0.4,1.1,1.4c-0.6,0-1.1-0.1-1.7-0.1v0.8c-0.9-0.1-1.9-0.7-2.7,0.2
	h-0.2c-0.8-0.3-1.4-0.1-1.9,0.5c-0.1,0.2-0.4,0.2-0.7,0.3c-0.3,0-0.4,0.5-0.5,0.7c1.9-0.2,4.1-0.7,6.6-1.4l0.2,1.5l2.5-0.1
	c0.1-0.3,0.3-0.5,0.5-0.6c0-0.4,0-0.8,0-1.2c0-4.8,1.9-8.4,5.3-10.9c3.4-2.5,7.8-3.6,13.9-3.6c2.3,0,4.2,0.1,5.9,0.4
	c0.9,0.1,1.9,0.3,2.8,0.5v-0.5c0-2.3-1-4-2.9-5c-2-1.1-4.9-1.7-8.7-1.8l-11-0.3l0.8-10l9.4,0.1c7.8,0.1,13.6,1.6,17.3,4.6
	c3.7,2.9,5.5,7,5.7,12.4c0,0,0.1,0,0.2,0c0.1-0.3,0.2-0.5,0.6-0.2c0.4,0.2,0.7,0.5,1.1,0.8c0.6,0.4,1,0.3,1.4-0.1
	c-0.2-0.5-0.4-0.9-0.6-1.2c0.7-0.3,1.3-0.5,1.8-0.7c0.2,0.2,0.4,0.5,0.7,0.7c0.2-0.3,0.3-0.6,0.5-0.9c0.1,0.1,0.2,0.2,0.2,0.2
	c0.4,0.2,0.7,0.5,0.9,0.6c0.7-0.3,1.2-0.8,1.7-0.8c0.6,0,1.1,0,1.7-0.2c0.3-0.1,0.5-2.1,1.1-3.1c0.6-1,1.6-0.8,2.1-1
	c0.1,0,0.2,0,0.4,0c0.6,0.1,1.1-0.2,1.7-0.5s1.3-0.5,1.9-0.6c0.5-0.1,0.9,0.1,1,0.8c-0.5,0.1-0.9,0.2-1.3,0.3
	C299.9,47.5,299.9,47.5,299.9,47.6z M157.8,49.1c-0.2,0-0.4,0-0.6,0.1c0-0.1,0-0.1-0.1-0.2c0.1-0.1,0.2-0.2,0.4-0.2
	c0.1,0,0.2,0.1,0.4,0.1C157.8,49,157.8,49.1,157.8,49.1z M158.5,46.3c-0.5,0.1-1,0.1-1.6,0.2c0.3-0.5,0.4-0.8,0.6-1.1
	c0.2-0.2,0.5-0.3,0.7-0.2c0.2,0.1,0.5,0.3,0.6,0.5C158.8,45.8,158.6,46.2,158.5,46.3z M161.8,44.6c0-0.1,0-0.2,0-0.3
	c0.3,0,0.7,0.1,1.2,0.2C162.5,45,162.1,44.8,161.8,44.6z M193.2,33c0.1,0.1,0.2,0.2,0.4,0.5c-0.3,0.1-0.5,0.2-0.5,0.2
	c-0.1-0.1-0.2-0.3-0.3-0.5C193,33.1,193.2,33,193.2,33z M193.1,36.3c0,0.1,0,0.1,0.1,0.2l-0.4,0.2c0-0.1-0.1-0.2-0.1-0.3
	C192.7,36.4,192.9,36.4,193.1,36.3z M191.2,35.2c0.6-0.3,1-0.4,1.3,0.2C192.1,35.8,192.1,35.8,191.2,35.2z M192.6,37.6
	c0.8-0.7,1.1-0.1,1.5,0.4C193.4,38.4,193.2,37.6,192.6,37.6z M200.2,32.3c-0.7,0.3-0.7,0.3-1.6-0.1
	C199.6,31.4,199.7,31.4,200.2,32.3z M200.4,36.7c-0.5,0-0.8,0.1-1.3,0.1C199.7,36.1,199.7,36.1,200.4,36.7z M196.5,35.5
	c0.2,0,0.4,0,0.7,0.1c0,0.1,0,0.1,0,0.2c-0.2,0-0.4,0-0.7,0C196.5,35.7,196.5,35.6,196.5,35.5z M197.2,37.6
	c-0.2,0.1-0.4,0.2-0.5,0.3c-0.1,1.1-0.9,0.9-1.6,0.8c-0.1-0.1-0.2-0.3-0.4-0.5c0.4-0.1,0.7-0.2,1-0.3c0.2-1,0.7-1.8,2-1.7
	c0.3,0,0.5,0.2,1,0.3C198.1,36.9,197.6,37.2,197.2,37.6z M213,35c-0.6,0.3-0.9,0.2-1.1-0.4C212.3,34.7,212.5,34.8,213,35z
	M212.5,36.4c-0.9,0.4-1.5,0.6-2.1,0.9c-0.1,0-0.2,0-0.2,0c-0.8-0.3-1.5-0.1-2.2,0.3c0.1-0.8,0.4-1.1,2.2-1.7
	c-0.7-1.1-1.9,0.1-2.7-0.4c0.3-0.7,0.8-0.7,1.2-0.7C210.1,34.8,211.2,35.7,212.5,36.4z M208.1,32.2c-0.1,0.7-0.4,0.6-0.9,0.3
	C207.5,32.3,207.8,32.2,208.1,32.2z M204,32.9c0-0.1,0.4-0.2,0.6-0.2s0.3,0.1,0.8,0.3c-0.5,0.2-0.6,0.3-0.9,0.4
	C204.2,33.4,203.9,33.4,204,32.9z M205,35.4c0.3,1.2,1.3,0.6,2.1,0.9c-0.5,1.1-1.7,1.6-3.1,1.1c0.2-0.3,0.3-0.6,0.5-1.1h-2
	C203.3,35.4,204.1,35.4,205,35.4z M202,38.3c-1-0.1-1.7,0.3-2.5,0.9c-0.7,0.5-1,0.3-1.5-0.5c0.6-0.3,1.1-0.8,1.7-1
	c0.9-0.4,1.7-0.2,2.6,0.3C202.1,38.2,202,38.3,202,38.3z M202,35.6l-0.1,0.3c-0.2,0-0.5,0.2-0.5,0.1c-0.6-0.5-1.5-0.4-1.9-1.4
	C200.6,34.5,201,35.7,202,35.6z M230.5,61.8h-0.8c0-0.1,0-0.2,0-0.3c0.3,0,0.6,0.1,0.8,0.1C230.5,61.6,230.5,61.7,230.5,61.8z
	M231.2,63.3c0-0.5-0.1-0.9-0.1-1.4c0.6,0.3,1.1-0.6,1.5,0.2C232.2,62.5,231.8,62.8,231.2,63.3z M243,65.5c0.6-0.4,0.6-0.4,1.1,0.4
	C243.7,65.8,243.4,65.7,243,65.5z M244.3,60.5c0.2-0.3,0.4-0.6,0.6-0.9C245.4,60.4,245.4,60.4,244.3,60.5z M284.8,53
	c-0.2,0-0.5,0-0.7-0.1c0-0.1,0-0.2,0.1-0.3l0.7,0.2C284.9,52.8,284.9,52.9,284.8,53z M291.8,51.2c-0.1-0.1-0.2-0.2-0.4-0.2
	c0.1-0.2,0.3-0.3,0.4-0.5l0.2,0.1C292,50.7,291.9,51,291.8,51.2z M291.2,49.3c0.8-0.6,1.1-0.2,1.4,0.4
	C292.3,49.5,291.9,49.4,291.2,49.3z M291.9,48.7c0.1-1,0.1-1,1-1.2C293,48.1,293,48.1,291.9,48.7z M345.6,34
	C345.6,34,345.6,34,345.6,34c0.6,0.2,0.9,0.4,0.7,0.9C346.2,34.5,345.9,34.2,345.6,34z M282.7,53.4c0,0,0-0.1,0-0.1
	c0.1,0,0.3,0.1,0.4,0.1c0.1,0.2,0,0.3-0.1,0.4C282.9,53.7,282.8,53.5,282.7,53.4z M282.7,53.9c0.2,0,0.3,0,0.4-0.1
	c0.1,0.1,0.1,0.1,0.2,0.2c-0.2,0.1-0.4,0.2-0.6,0.3v-0.4C282.6,53.9,282.7,53.9,282.7,53.9z"/>
</svg>
